<svg viewBox="0 0 24 24" xmlns="http://www.w3.org/2000/svg"><g data-name="id card"><path d="M21 3H3a3 3 0 0 0-3 3v12a3 3 0 0 0 3 3h18a3 3 0 0 0 3-3V6a3 3 0 0 0-3-3Zm1 15a1 1 0 0 1-1 1H3a1 1 0 0 1-1-1V6a1 1 0 0 1 1-1h18a1 1 0 0 1 1 1Z" fill="#ffffff" class="fill-000000"></path><path d="M10.38 11.8a3 3 0 1 0-4.76 0C3.91 13.08 4 14.68 4 16a1 1 0 0 0 1 1h6a1 1 0 0 0 1-1c0-1.21.15-2.87-1.62-4.2ZM7 10a1 1 0 0 1 2 0 1 1 0 0 1-2 0Zm-1 5a2 2 0 0 1 4 0ZM19 7h-5a1 1 0 0 0 0 2h5a1 1 0 0 0 0-2ZM19 11h-5a1 1 0 0 0 0 2h5a1 1 0 0 0 0-2ZM19 15h-5a1 1 0 0 0 0 2h5a1 1 0 0 0 0-2Z" fill="#ffffff" class="fill-000000"></path></g></svg>